<svg id="Layer_1" data-name="Layer 1" xmlns="http://www.w3.org/2000/svg" xmlns:xlink="http://www.w3.org/1999/xlink" viewBox="0 0 610.32 605.41"><defs><style>.cls-1{opacity:0.12;}.cls-2{fill:url(#radial-gradient);}</style><radialGradient id="radial-gradient" cx="-7.63" cy="83.94" r="705.5" gradientUnits="userSpaceOnUse"><stop offset="0" stop-color="#177bff"/><stop offset="0.02" stop-color="#3289f9"/><stop offset="0.07" stop-color="#78ace9"/><stop offset="0.07" stop-color="#7dafe8"/><stop offset="0.28" stop-color="#96cbff"/><stop offset="0.28" stop-color="#92c8ff"/><stop offset="0.36" stop-color="#65aafa"/><stop offset="0.43" stop-color="#4997f7"/><stop offset="0.46" stop-color="#3f90f6"/><stop offset="0.62" stop-color="#207bd0"/><stop offset="0.77" stop-color="#0065a9"/></radialGradient></defs><title>logo opacity</title><g class="cls-1"><path class="cls-2" d="M74.21,465.57a3.38,3.38,0,0,1-3-5L215.49,193.48a3.35,3.35,0,0,1,3.08-1.78,3.39,3.39,0,0,1,3,2c.45,1,45,97.83,87.45,170.09,1.44,2.45,3,4.73,4.49,7.11-9-26.42-11-54.86-5.41-84,7.64-39.48,30.68-74.36,63.21-95.72,69.68-45.73,146.58-12.7,200.48,37.55.52-.49,1.13-.85,1.63-1.37l21.5-21.23a300.42,300.42,0,0,0-33.27-29.89,214.93,214.93,0,0,0-36.52-22.32,187.45,187.45,0,0,0-39-14.34,163,163,0,0,0-40.3-5.14,186.58,186.58,0,0,0-49.36,6.63,191,191,0,0,0-44.63,18.26A186.43,186.43,0,0,0,314.13,188a174.61,174.61,0,0,0-28.4,35.57c-.27.41-.54.95-.81,1.35a6.28,6.28,0,0,0-.68,1.35l-26.24-48-23.4-44.09a18.37,18.37,0,0,0-32.46,0l-23.4,44.09L17.67,472.69A18.49,18.49,0,0,0,33.9,500H218.38l-14.15-34.44Z"/><path class="cls-2" d="M558.79,396.69V379.8l-12.41-3.48s0,10.88,0,16.05h0a62.42,62.42,0,0,0-12.71-1.22,55.75,55.75,0,0,0-22.86,4.73V359.07c5.54,2,10.28,3.52,16.5,5.68V323.9c0-1.08-.54-2.71-1.35-3.11-5-3.25-29.21-18.53-29.21-18.53v58.43l-13.93,8.93-6.36,4.06v39.65h0a71.65,71.65,0,0,1-14.34,3.52h0V239.22l-21.42,15.86a33.56,33.56,0,0,0-13.59,27v10.18l23.41,14v111.8h0c-1.49.13-3.11.13-4.6.13a99.34,99.34,0,0,1-31.67-5h0v-121c-10.14,6-19.37,11.86-28.95,17-4.45,2.41-5.7,5.38-5.68,10.21.12,24.9.08,49.8.07,74.7a3.94,3.94,0,0,1-.85-.61c-1.89-1.62-3.92-3.25-5.68-5l-.13-.14a103.16,103.16,0,0,1-22.45-31.92,96.41,96.41,0,0,1-6.49-21,50.09,50.09,0,0,1-1.35-7.84v-.27a82.11,82.11,0,0,1-.54-10.14,96.31,96.31,0,0,1,8.39-39.22,104.19,104.19,0,0,1,55.59-53.56,99.7,99.7,0,0,1,39.76-8.25,96.7,96.7,0,0,1,30.29,4.87,109.32,109.32,0,0,1,27.37,13.47,54.65,54.65,0,0,0,31,9.11,53.49,53.49,0,0,0,21.45-4.46,54.59,54.59,0,0,0,10.59-6.15C514.6,185,441.13,153.43,375,196.83c-31,20.36-53,53.66-60.28,91.35-7.72,39.91-.8,78.59,20,111.93,20,23.82,42.22,41.1,63.27,48.17,57.49,19.3,109.38,8.91,158.69-31.79a3.38,3.38,0,1,1,4.31,5.22c-51.26,42.29-105.28,53.09-165.15,33-22.2-7.45-45.53-25.53-66.38-50.37l-.08.05c-.09-.15-.17-.31-.26-.46a272.63,272.63,0,0,1-25.91-36.72c-36.45-62-74.4-142.05-84.92-164.56L79.87,458.81H201.45l-4.58-11.14a30.06,30.06,0,0,0-28-18.66H142l68.57-127.4c1.49-2.84,2.71-5.82,3.79-8.39,1.08-2.84,1.76-5.14,2.43-7.3q1-3.65,1.62-6.9a30.4,30.4,0,0,0,1.35,6.63c.68,2.16,1.35,4.6,2.3,7.3a76.44,76.44,0,0,0,3.92,8.66L272.07,386l5.82,10.55a2.28,2.28,0,0,0,.27.68c2,4.19,4.33,8.39,6.76,12.44.27.54.68.95.95,1.49,2.43,3.65,4.73,7.44,7.3,11a179.14,179.14,0,0,0,21,24.48,186.77,186.77,0,0,0,82.36,46.93,177.94,177.94,0,0,0,37.19,6.09c1.08,0,2,.14,3.11.14,3.11.14,6.09.27,9.06.27a162.88,162.88,0,0,0,40.3-5,203.76,203.76,0,0,0,39-14.2,235.63,235.63,0,0,0,36.52-22.59,274.28,274.28,0,0,0,33.27-29.75l-21.5-21.37A52.45,52.45,0,0,0,558.79,396.69Z"/></g></svg>