<svg id="Layer_1" data-name="Layer 1" xmlns="http://www.w3.org/2000/svg" xmlns:xlink="http://www.w3.org/1999/xlink" viewBox="0 0 610.32 605.41"><defs><style>.cls-1{font-size:48.46px;fill:#363639;font-family:PollyRounded-Regular, Polly Rounded;}.cls-2{letter-spacing:-0.04em;}.cls-3{letter-spacing:0em;}.cls-4{letter-spacing:-0.03em;}.cls-5{fill:url(#radial-gradient);}</style><radialGradient id="radial-gradient" cx="14.22" cy="28.44" r="656.23" gradientUnits="userSpaceOnUse"><stop offset="0" stop-color="#177bff"/><stop offset="0.02" stop-color="#3289f9"/><stop offset="0.07" stop-color="#78ace9"/><stop offset="0.07" stop-color="#7dafe8"/><stop offset="0.28" stop-color="#96cbff"/><stop offset="0.28" stop-color="#92c8ff"/><stop offset="0.36" stop-color="#65aafa"/><stop offset="0.43" stop-color="#4997f7"/><stop offset="0.46" stop-color="#3f90f6"/><stop offset="0.62" stop-color="#207bd0"/><stop offset="0.77" stop-color="#0065a9"/></radialGradient></defs><title>Accra city</title><text class="cls-1" transform="translate(115.95 525.49)"><tspan class="cls-2">A</tspan><tspan class="cls-3" x="32.13" y="0">cc</tspan><tspan class="cls-4" x="88.05" y="0">r</tspan><tspan x="107.14" y="0">a City App</tspan></text><path class="cls-5" d="M90.33,383.43a3.15,3.15,0,0,1-2.77-4.64L221.75,130.34a3.11,3.11,0,0,1,2.87-1.65,3.15,3.15,0,0,1,2.75,1.83c.42.9,41.86,91,81.34,158.21,1.34,2.28,2.79,4.4,4.18,6.61a150.78,150.78,0,0,1-5-78.1c7.11-36.72,28.54-69.17,58.8-89C431.47,85.66,503,116.38,553.14,163.13c.48-.46,1.05-.79,1.52-1.28l20-19.75a279.44,279.44,0,0,0-30.95-27.8,199.92,199.92,0,0,0-34-20.76,174.36,174.36,0,0,0-36.23-13.33A151.66,151.66,0,0,0,436,75.43a173.55,173.55,0,0,0-45.92,6.16,177.65,177.65,0,0,0-41.51,17,173.41,173.41,0,0,0-35.1,26.67,162.42,162.42,0,0,0-26.42,33.09c-.25.38-.5.88-.75,1.26a5.84,5.84,0,0,0-.63,1.26L261.3,116.19l-21.76-41a17.09,17.09,0,0,0-30.19,0l-21.76,41L37.75,390.05a17.2,17.2,0,0,0,15.1,25.41H224.44l-13.16-32Z"/><path class="cls-5" d="M541.07,319.35V303.64l-11.54-3.24s0,10.12,0,14.93h0a58.06,58.06,0,0,0-11.83-1.13,51.86,51.86,0,0,0-21.26,4.4V284.36c5.16,1.89,9.56,3.27,15.35,5.28v-38c0-1-.5-2.52-1.26-2.89-4.65-3-27.17-17.23-27.17-17.23v54.35l-13,8.3-5.91,3.77v36.88h0a66.64,66.64,0,0,1-13.33,3.27h0V172.88l-19.92,14.75a31.22,31.22,0,0,0-12.64,25.09v9.47l21.78,13v104h0c-1.38.13-2.89.13-4.28.13a92.41,92.41,0,0,1-29.46-4.66h0V222.18c-9.43,5.6-18,11-26.93,15.86-4.14,2.24-5.3,5-5.28,9.5.11,23.16.07,46.32.06,69.48a3.67,3.67,0,0,1-.79-.56c-1.76-1.51-3.65-3-5.28-4.65l-.13-.13A96,96,0,0,1,347.34,282a89.68,89.68,0,0,1-6-19.5,46.59,46.59,0,0,1-1.26-7.3v-.25a76.37,76.37,0,0,1-.5-9.43,89.58,89.58,0,0,1,7.8-36.48A96.92,96.92,0,0,1,399,159.21a92.73,92.73,0,0,1,37-7.67,90,90,0,0,1,28.18,4.53,101.69,101.69,0,0,1,25.46,12.53,50.83,50.83,0,0,0,28.81,8.47,49.76,49.76,0,0,0,19.95-4.15,50.78,50.78,0,0,0,9.85-5.72C500,122.45,431.63,93.08,370.11,133.46c-28.85,18.94-49.29,49.91-56.07,85-7.18,37.12-.74,73.1,18.58,104.11,18.6,22.16,39.27,38.23,58.85,44.8,53.47,17.95,101.75,8.29,147.61-29.57a3.15,3.15,0,1,1,4,4.85C495.4,382,445.15,392,389.46,373.3c-20.65-6.93-42.35-23.74-61.75-46.86l-.08,0c-.09-.14-.16-.29-.24-.43a253.59,253.59,0,0,1-24.1-34.15c-33.9-57.7-69.2-132.13-79-153.07L95.6,377.14H208.69l-4.26-10.36a28,28,0,0,0-26-17.36h-25l63.78-118.5c1.38-2.64,2.52-5.41,3.52-7.8,1-2.64,1.64-4.78,2.26-6.79q.94-3.4,1.51-6.42a28.27,28.27,0,0,0,1.26,6.16c.63,2,1.26,4.28,2.14,6.79a71.1,71.1,0,0,0,3.65,8.05l42.9,78.5,5.41,9.81a2.12,2.12,0,0,0,.25.63c1.89,3.9,4,7.8,6.29,11.57.25.5.63.88.88,1.38,2.26,3.4,4.4,6.92,6.79,10.19a166.63,166.63,0,0,0,19.5,22.77,173.73,173.73,0,0,0,76.61,43.65,165.52,165.52,0,0,0,34.59,5.66c1,0,1.89.13,2.89.13,2.89.13,5.66.25,8.43.25a151.51,151.51,0,0,0,37.49-4.65,189.53,189.53,0,0,0,36.23-13.21,219.17,219.17,0,0,0,34-21,255.13,255.13,0,0,0,30.95-27.68l-20-19.88A48.79,48.79,0,0,0,541.07,319.35Z"/></svg>