<svg id="Layer_1" data-name="Layer 1" xmlns="http://www.w3.org/2000/svg" xmlns:xlink="http://www.w3.org/1999/xlink" viewBox="0 0 610.32 605.41"><defs><style>.cls-1{fill:url(#radial-gradient);}.cls-2{fill:url(#linear-gradient);}.cls-3{fill:#fff;}</style><radialGradient id="radial-gradient" cx="-102.75" cy="-25.76" r="1018.71" gradientUnits="userSpaceOnUse"><stop offset="0" stop-color="#177bff"/><stop offset="0.02" stop-color="#3289f9"/><stop offset="0.07" stop-color="#78ace9"/><stop offset="0.07" stop-color="#7dafe8"/><stop offset="0.28" stop-color="#96cbff"/><stop offset="0.28" stop-color="#92c8ff"/><stop offset="0.36" stop-color="#65aafa"/><stop offset="0.43" stop-color="#4997f7"/><stop offset="0.46" stop-color="#3f90f6"/><stop offset="0.62" stop-color="#207bd0"/><stop offset="0.77" stop-color="#0065a9"/></radialGradient><linearGradient id="linear-gradient" x1="9.07" y1="23.31" x2="511.63" y2="500.29" gradientUnits="userSpaceOnUse"><stop offset="0" stop-color="#fff"/><stop offset="0.42" stop-color="#177bff" stop-opacity="0"/></linearGradient></defs><title>app logo case-05</title><rect class="cls-1" x="12.85" y="12.03" width="584.61" height="584.61" rx="18.44" ry="18.44"/><rect class="cls-2" x="17.97" y="17.14" width="574.39" height="574.39" rx="18.44" ry="18.44"/><path class="cls-3" d="M120.32,416.72a2.71,2.71,0,0,1-2.38-4L233.4,199a2.68,2.68,0,0,1,2.47-1.42,2.71,2.71,0,0,1,2.37,1.57c.36.78,36,78.3,70,136.13,1.15,2,2.4,3.79,3.59,5.69a129.73,129.73,0,0,1-4.33-67.2c6.11-31.59,24.55-59.52,50.59-76.61,55.77-36.6,117.31-10.17,160.45,30.05.42-.39.9-.68,1.31-1.1l17.21-17a240.44,240.44,0,0,0-26.63-23.92,172,172,0,0,0-29.22-17.86A150,150,0,0,0,450,155.82a130.49,130.49,0,0,0-32.26-4.11,149.32,149.32,0,0,0-39.51,5.3,152.85,152.85,0,0,0-35.72,14.61,149.21,149.21,0,0,0-30.2,22.95A139.74,139.74,0,0,0,289.61,223c-.22.32-.43.76-.65,1.08a5,5,0,0,0-.54,1.08l-21-38.43-18.73-35.29a14.7,14.7,0,0,0-26,0L204,186.78,75.08,422.41a14.8,14.8,0,0,0,13,21.86H235.7l-11.32-27.56Z"/><path class="cls-3" d="M508.14,361.58V348.07l-9.93-2.79s0,8.71,0,12.85h0a50,50,0,0,0-10.17-1,44.62,44.62,0,0,0-18.29,3.79V331.48c4.44,1.62,8.23,2.81,13.2,4.55V303.33a3.17,3.17,0,0,0-1.08-2.49c-4-2.6-23.38-14.83-23.38-14.83v46.76l-11.15,7.14-5.09,3.25V374.9h0a57.34,57.34,0,0,1-11.47,2.81h0V235.56L413.6,248.25a26.86,26.86,0,0,0-10.87,21.58V278l18.74,11.22v89.48h0c-1.19.11-2.49.11-3.68.11a79.51,79.51,0,0,1-25.35-4h0V278c-8.11,4.82-15.5,9.49-23.17,13.64-3.56,1.93-4.56,4.31-4.54,8.17.1,19.93.06,39.85.05,59.78a3.15,3.15,0,0,1-.68-.49c-1.52-1.3-3.14-2.6-4.55-4l-.11-.11a82.56,82.56,0,0,1-18-25.54,77.16,77.16,0,0,1-5.2-16.78,40.08,40.08,0,0,1-1.08-6.28v-.22a65.71,65.71,0,0,1-.43-8.12,77.08,77.08,0,0,1,6.71-31.39,83.39,83.39,0,0,1,44.49-42.86,79.79,79.79,0,0,1,31.82-6.6,77.39,77.39,0,0,1,24.25,3.9,87.49,87.49,0,0,1,21.91,10.78,43.73,43.73,0,0,0,24.79,7.29,42.81,42.81,0,0,0,17.16-3.57,43.69,43.69,0,0,0,8.48-4.92C472.78,192.17,414,166.9,361,201.64c-24.82,16.29-42.41,42.94-48.24,73.11-6.18,31.94-.64,62.9,16,89.58,16,19.06,33.79,32.89,50.63,38.55,46,15.44,87.54,7.13,127-25.44a2.71,2.71,0,1,1,3.45,4.18c-41,33.85-84.26,42.49-132.17,26.39-17.77-6-36.44-20.43-53.13-40.31l-.07,0c-.08-.12-.13-.25-.21-.37A218.19,218.19,0,0,1,303.56,338c-29.17-49.65-59.54-113.69-68-131.7l-110.74,205h97.3l-3.66-8.91a24.06,24.06,0,0,0-22.41-14.94H174.55l54.88-102c1.19-2.27,2.16-4.65,3-6.71.87-2.27,1.41-4.11,1.95-5.84q.81-2.92,1.3-5.52a24.33,24.33,0,0,0,1.08,5.3c.54,1.73,1.08,3.68,1.84,5.85a61.18,61.18,0,0,0,3.14,6.93L278.68,353l4.65,8.44a1.82,1.82,0,0,0,.22.54c1.62,3.36,3.46,6.71,5.41,10,.22.43.54.76.76,1.19,1.95,2.92,3.79,6,5.84,8.77a143.37,143.37,0,0,0,16.78,19.59,149.47,149.47,0,0,0,65.92,37.56A142.41,142.41,0,0,0,408,444c.87,0,1.62.11,2.49.11,2.49.11,4.87.22,7.25.22a130.36,130.36,0,0,0,32.26-4,163.08,163.08,0,0,0,31.17-11.37,188.58,188.58,0,0,0,29.22-18.08A219.51,219.51,0,0,0,537,387l-17.21-17.1A42,42,0,0,0,508.14,361.58Z"/></svg>