<svg xmlns="http://www.w3.org/2000/svg" xmlns:xlink="http://www.w3.org/1999/xlink" viewBox="0 0 466.51 595.44"><defs><style>.cls-1{fill:none;}.cls-2{isolation:isolate;}.cls-16,.cls-3{mix-blend-mode:multiply;}.cls-3{fill:url(#radial-gradient);}.cls-4{fill:url(#linear-gradient);}.cls-5{fill:url(#linear-gradient-2);}.cls-6{fill:url(#linear-gradient-3);}.cls-7{fill:url(#linear-gradient-4);}.cls-8{fill:url(#linear-gradient-5);}.cls-9{fill:url(#linear-gradient-6);}.cls-10{clip-path:url(#clip-path);}.cls-11{fill:url(#radial-gradient-2);}.cls-12,.cls-13,.cls-20{mix-blend-mode:screen;}.cls-12{fill:url(#linear-gradient-7);}.cls-13{fill:url(#linear-gradient-8);}.cls-14{fill:url(#linear-gradient-9);}.cls-15{fill:url(#linear-gradient-10);}.cls-16{fill:url(#linear-gradient-11);}.cls-17{fill:url(#linear-gradient-12);}.cls-18{fill:url(#radial-gradient-3);}.cls-19{fill:url(#radial-gradient-4);}.cls-20{opacity:0.5;fill:url(#radial-gradient-5);}.cls-21{font-size:7.41px;font-family:MyriadPro-Regular, Myriad Pro;}.cls-21,.cls-22,.cls-23,.cls-28,.cls-29,.cls-30,.cls-31,.cls-32,.cls-33,.cls-34,.cls-35,.cls-36,.cls-37,.cls-38{fill:#fff;}.cls-23{font-size:11.24px;font-family:PollyRounded-Regular, Polly Rounded;}.cls-24{letter-spacing:-0.04em;}.cls-25{letter-spacing:0em;}.cls-26{letter-spacing:-0.03em;}.cls-27{opacity:0.63;}.cls-28{opacity:0.92;}.cls-29{opacity:0.84;}.cls-30{opacity:0.76;}.cls-31{opacity:0.68;}.cls-32{opacity:0.6;}.cls-33{opacity:0.52;}.cls-34{opacity:0.44;}.cls-35{opacity:0.36;}.cls-36{opacity:0.25;}.cls-37{opacity:0.05;}.cls-38{opacity:0;}</style><radialGradient id="radial-gradient" cx="743.98" cy="7395.25" r="99.7" gradientTransform="translate(-1415.02 -208.45) scale(2.22 0.1)" gradientUnits="userSpaceOnUse"><stop offset="0" stop-color="#6d6e70"/><stop offset="0.19" stop-color="#7f8082" stop-opacity="0.86"/><stop offset="0.56" stop-color="#afb0b1" stop-opacity="0.5"/><stop offset="1" stop-color="#f1f1f2" stop-opacity="0"/></radialGradient><linearGradient id="linear-gradient" x1="357.48" y1="155.27" x2="357.48" y2="216.83" gradientTransform="translate(714.96 371.47) rotate(-180)" gradientUnits="userSpaceOnUse"><stop offset="0" stop-color="#3f5973"/><stop offset="0.07" stop-color="#44607d"/><stop offset="0.19" stop-color="#527498"/><stop offset="0.34" stop-color="#6994c3"/><stop offset="0.45" stop-color="#7dafe8"/><stop offset="0.54" stop-color="#76a6db"/><stop offset="0.71" stop-color="#648db9"/><stop offset="0.94" stop-color="#476482"/><stop offset="1" stop-color="#3f5973"/></linearGradient><linearGradient id="linear-gradient-2" x1="108.94" y1="106.92" x2="108.94" y2="127.63" gradientTransform="matrix(1, 0, 0, 1, 0, 0)" xlink:href="#linear-gradient"/><linearGradient id="linear-gradient-3" x1="108.94" y1="142.02" x2="108.94" y2="180.58" gradientTransform="matrix(1, 0, 0, 1, 0, 0)" xlink:href="#linear-gradient"/><linearGradient id="linear-gradient-4" x1="108.94" y1="189.62" x2="108.94" y2="229.01" gradientTransform="matrix(1, 0, 0, 1, 0, 0)" xlink:href="#linear-gradient"/><linearGradient id="linear-gradient-5" x1="109.28" y1="292.89" x2="357.48" y2="292.89" gradientTransform="matrix(1, 0, 0, 1, 0, 0)" xlink:href="#linear-gradient"/><linearGradient id="linear-gradient-6" x1="233.38" y1="537.58" x2="233.38" y2="47.13" gradientTransform="translate(-59.52 526.27) rotate(-90)" gradientUnits="userSpaceOnUse"><stop offset="0" stop-color="#4d4d4d"/><stop offset="1"/></linearGradient><clipPath id="clip-path"><rect class="cls-1" x="-8.18" y="180.22" width="483.13" height="225.35" rx="18.76" ry="18.76" transform="translate(526.27 59.52) rotate(90)"/></clipPath><radialGradient id="radial-gradient-2" cx="-25.2" cy="-103" r="716.61" gradientUnits="userSpaceOnUse"><stop offset="0" stop-color="#177bff"/><stop offset="0.02" stop-color="#3289f9"/><stop offset="0.07" stop-color="#78ace9"/><stop offset="0.07" stop-color="#7dafe8"/><stop offset="0.28" stop-color="#96cbff"/><stop offset="0.28" stop-color="#92c8ff"/><stop offset="0.36" stop-color="#65aafa"/><stop offset="0.43" stop-color="#4997f7"/><stop offset="0.46" stop-color="#3f90f6"/><stop offset="0.62" stop-color="#207bd0"/><stop offset="0.77" stop-color="#0065a9"/></radialGradient><linearGradient id="linear-gradient-7" x1="348.25" y1="292.89" x2="353.7" y2="292.89" gradientUnits="userSpaceOnUse"><stop offset="0" stop-opacity="0"/><stop offset="0.2" stop-color="#3d3d3d" stop-opacity="0.24"/><stop offset="0.49" stop-color="#8f8f8f" stop-opacity="0.56"/><stop offset="0.73" stop-color="#ccc" stop-opacity="0.8"/><stop offset="0.91" stop-color="#f1f1f1" stop-opacity="0.94"/><stop offset="1" stop-color="#fff"/></linearGradient><linearGradient id="linear-gradient-8" x1="10089.79" y1="292.89" x2="10095.25" y2="292.89" gradientTransform="matrix(-1, 0, 0, 1, 10208.3, 0)" xlink:href="#linear-gradient-7"/><linearGradient id="linear-gradient-9" x1="233.38" y1="60.22" x2="233.38" y2="56.29" gradientUnits="userSpaceOnUse"><stop offset="0" stop-color="#4d4d4d"/><stop offset="0.07" stop-color="#434343"/><stop offset="0.31" stop-color="#262626"/><stop offset="0.55" stop-color="#111"/><stop offset="0.78" stop-color="#040404"/><stop offset="1"/></linearGradient><linearGradient id="linear-gradient-10" x1="264.22" y1="62.49" x2="257.13" y2="55.4" gradientTransform="matrix(1, 0, 0, 1, 0, 0)" xlink:href="#linear-gradient-6"/><linearGradient id="linear-gradient-11" x1="263.54" y1="61.81" x2="257.74" y2="56.01" gradientUnits="userSpaceOnUse"><stop offset="0"/><stop offset="1" stop-color="#4d4d4d"/></linearGradient><linearGradient id="linear-gradient-12" x1="258.05" y1="56.31" x2="263.35" y2="61.62" gradientUnits="userSpaceOnUse"><stop offset="0" stop-color="#0058ee"/><stop offset="0.69" stop-opacity="0"/></linearGradient><radialGradient id="radial-gradient-3" cx="260.76" cy="62.06" r="3.32" gradientUnits="userSpaceOnUse"><stop offset="0" stop-color="#0058ee"/><stop offset="0.86" stop-opacity="0"/></radialGradient><radialGradient id="radial-gradient-4" cx="263.63" cy="57.71" r="2.18" gradientUnits="userSpaceOnUse"><stop offset="0" stop-color="#0058ee"/><stop offset="0.7" stop-opacity="0"/></radialGradient><radialGradient id="radial-gradient-5" cx="258.45" cy="59.87" r="3.3" gradientUnits="userSpaceOnUse"><stop offset="0" stop-color="#fff"/><stop offset="0.15" stop-color="#bdbdbd" stop-opacity="0.74"/><stop offset="0.29" stop-color="#838383" stop-opacity="0.52"/><stop offset="0.43" stop-color="#545454" stop-opacity="0.33"/><stop offset="0.57" stop-color="#303030" stop-opacity="0.19"/><stop offset="0.69" stop-color="#151515" stop-opacity="0.08"/><stop offset="0.8" stop-color="#060606" stop-opacity="0.02"/><stop offset="0.89" stop-opacity="0"/></radialGradient></defs><title>1</title><g class="cls-2"><g id="Layer_1" data-name="Layer 1"><ellipse class="cls-3" cx="233.21" cy="547.34" rx="220.86" ry="10.19"/><path class="cls-4" d="M356.83,155h3.26a0,0,0,0,1,0,0v61.56a0,0,0,0,1,0,0h-3.26a2,2,0,0,1-2-2V156.93A2,2,0,0,1,356.83,155Z" transform="translate(714.96 371.47) rotate(180)"/><path class="cls-5" d="M108.29,107h3.26a0,0,0,0,1,0,0v20.62a0,0,0,0,1,0,0h-3.26a2,2,0,0,1-2-2V109A2,2,0,0,1,108.29,107Z"/><path class="cls-6" d="M108.29,141.79h3.26a0,0,0,0,1,0,0v38.87a0,0,0,0,1,0,0h-3.26a2,2,0,0,1-2-2V143.76A2,2,0,0,1,108.29,141.79Z"/><path class="cls-7" d="M108.29,189.62h3.26a0,0,0,0,1,0,0v38.87a0,0,0,0,1,0,0h-3.26a2,2,0,0,1-2-2V191.59A2,2,0,0,1,108.29,189.62Z"/><rect class="cls-8" x="109.28" y="39.91" width="248.2" height="505.97" rx="28.22" ry="28.22"/><rect x="-14.85" y="173.55" width="496.45" height="238.68" rx="24.28" ry="24.28" transform="translate(526.27 59.52) rotate(90)"/><path class="cls-9" d="M10.25,178.31H456.51a20.33,20.33,0,0,1,20.33,20.33V387.14a20.34,20.34,0,0,1-20.34,20.34H10.25a20.33,20.33,0,0,1-20.33-20.33V198.65A20.33,20.33,0,0,1,10.25,178.31Z" transform="translate(526.27 59.52) rotate(90)"/><g class="cls-10"><rect class="cls-11" x="120.7" y="49.24" width="225.35" height="498.11"/></g><path class="cls-12" d="M349.21,514.19V71.6a29.25,29.25,0,0,0-11.11-23A29.32,29.32,0,0,1,352.72,74V511.81a29.32,29.32,0,0,1-14.62,25.35A29.25,29.25,0,0,0,349.21,514.19Z"/><path class="cls-13" d="M117.55,514.19V71.6a29.25,29.25,0,0,1,11.11-23A29.32,29.32,0,0,0,114,74V511.81a29.32,29.32,0,0,0,14.62,25.35A29.25,29.25,0,0,1,117.55,514.19Z"/><path d="M167.57,50.09a10.14,10.14,0,0,1,4.57,7.3c.63,5.71,2.86,12.69,12.22,12.69h98c9.36,0,11.58-7,12.22-12.69a10.14,10.14,0,0,1,4.57-7.3Z"/><rect class="cls-14" x="217.73" y="56.35" width="31.29" height="3.73" rx="1.14" ry="1.14"/><circle cx="260.49" cy="58.75" r="3.32"/><circle class="cls-15" cx="260.49" cy="58.75" r="4.76"/><circle class="cls-16" cx="260.49" cy="58.75" r="3.89"/><circle class="cls-17" cx="260.49" cy="58.75" r="3.32"/><circle class="cls-18" cx="260.49" cy="58.75" r="3.32"/><circle class="cls-19" cx="260.49" cy="58.75" r="3.32"/><circle class="cls-20" cx="260.49" cy="58.75" r="3.32"/><text class="cls-21" transform="translate(141.82 68.44)">8:30</text><rect class="cls-22" x="299.43" y="66.24" width="1.51" height="2.47"/><rect class="cls-22" x="301.6" y="65.24" width="1.51" height="3.46"/><rect class="cls-22" x="303.76" y="64.28" width="1.51" height="4.43"/><rect class="cls-22" x="305.92" y="63.18" width="1.51" height="5.52"/><path class="cls-22" d="M310.71,66a4.8,4.8,0,0,1,6.72,0l1-1a6.24,6.24,0,0,0-8.75,0Z"/><path class="cls-22" d="M312.07,67.35a2.88,2.88,0,0,1,4,0l1-1a4.32,4.32,0,0,0-6,0Z"/><path class="cls-22" d="M313.43,68.71a.95.95,0,0,1,1.29,0l1-1a2.4,2.4,0,0,0-3.33,0Z"/><rect class="cls-22" x="320.57" y="63.85" width="9.61" height="4.19" rx="0.22" ry="0.22"/><rect class="cls-22" x="330.4" y="65.04" width="0.77" height="1.8" rx="0.22" ry="0.22"/><text class="cls-23" transform="translate(184 333.3)"><tspan class="cls-24">A</tspan><tspan class="cls-25" x="7.45" y="0">cc</tspan><tspan class="cls-26" x="20.43" y="0">r</tspan><tspan x="24.86" y="0">a City App</tspan></text><path class="cls-22" d="M178.06,295.47a.73.73,0,0,1-.64-1.08l31.13-57.64a.72.72,0,0,1,.67-.38.73.73,0,0,1,.64.42c.1.21,9.71,21.11,18.87,36.7.31.53.65,1,1,1.53a35,35,0,0,1-1.17-18.12,32,32,0,0,1,13.64-20.66c15-9.87,31.63-2.74,43.26,8.1.11-.11.24-.18.35-.3l4.64-4.58a64.83,64.83,0,0,0-7.18-6.45,46.38,46.38,0,0,0-7.88-4.82,40.45,40.45,0,0,0-8.41-3.09,35.18,35.18,0,0,0-8.7-1.11,40.26,40.26,0,0,0-10.65,1.43,41.21,41.21,0,0,0-9.63,3.94,40.23,40.23,0,0,0-8.14,6.19,37.68,37.68,0,0,0-6.13,7.68l-.18.29a1.35,1.35,0,0,0-.15.29l-5.66-10.36-5-9.51a4,4,0,0,0-7,0l-5,9.51L165.86,297a4,4,0,0,0,3.5,5.9h39.81l-3.05-7.43Z"/><path class="cls-22" d="M282.63,280.6V277L280,276.2s0,2.35,0,3.46h0a13.47,13.47,0,0,0-2.74-.26,12,12,0,0,0-4.93,1v-7.94c1.2.44,2.22.76,3.56,1.23v-8.81a.85.85,0,0,0-.29-.67c-1.08-.7-6.3-4-6.3-4v12.61l-3,1.93-1.37.88v8.56h0a15.46,15.46,0,0,1-3.09.76h0V246.62L257.13,250a7.24,7.24,0,0,0-2.93,5.82v2.2l5.05,3v24.13h0c-.32,0-.67,0-1,0a21.44,21.44,0,0,1-6.84-1.08h0v-26.1c-2.19,1.3-4.18,2.56-6.25,3.68a2.14,2.14,0,0,0-1.23,2.2c0,5.37,0,10.75,0,16.12a.85.85,0,0,1-.18-.13c-.41-.35-.85-.7-1.23-1.08l0,0a22.26,22.26,0,0,1-4.84-6.89,20.81,20.81,0,0,1-1.4-4.52,10.81,10.81,0,0,1-.29-1.69v-.06a17.72,17.72,0,0,1-.12-2.19,20.78,20.78,0,0,1,1.81-8.46,22.48,22.48,0,0,1,12-11.56,21.51,21.51,0,0,1,8.58-1.78,20.87,20.87,0,0,1,6.54,1.05,23.59,23.59,0,0,1,5.91,2.91,11.79,11.79,0,0,0,6.68,2,11.54,11.54,0,0,0,4.63-1,11.78,11.78,0,0,0,2.29-1.33c-11.21-10.38-27.06-17.2-41.34-7.83a30.54,30.54,0,0,0-13,19.71,33,33,0,0,0,4.31,24.15c4.32,5.14,9.11,8.87,13.65,10.39,12.4,4.16,23.6,1.92,34.24-6.86a.73.73,0,0,1,.93,1.13c-11.06,9.13-22.72,11.46-35.64,7.12-4.79-1.61-9.82-5.51-14.33-10.87h0l-.06-.1a58.83,58.83,0,0,1-5.59-7.92c-7.86-13.39-16.05-30.65-18.32-35.51L179.28,294h26.24l-1-2.4a6.49,6.49,0,0,0-6-4h-5.81l14.8-27.49c.32-.61.58-1.25.82-1.81s.38-1.11.53-1.58.26-1,.35-1.49a6.56,6.56,0,0,0,.29,1.43c.15.47.29,1,.5,1.58a16.5,16.5,0,0,0,.85,1.87l10,18.21,1.25,2.28a.49.49,0,0,0,.06.15c.44.9.93,1.81,1.46,2.69.06.12.15.2.2.32.53.79,1,1.61,1.58,2.36a38.66,38.66,0,0,0,4.52,5.28,40.3,40.3,0,0,0,17.77,10.13,38.4,38.4,0,0,0,8,1.31c.23,0,.44,0,.67,0,.67,0,1.31.06,2,.06a35.15,35.15,0,0,0,8.7-1.08,44,44,0,0,0,8.41-3.06,50.85,50.85,0,0,0,7.88-4.87,59.19,59.19,0,0,0,7.18-6.42l-4.64-4.61A11.32,11.32,0,0,0,282.63,280.6Z"/><g class="cls-27"><circle class="cls-22" cx="234.29" cy="382.15" r="2.1"/><circle class="cls-28" cx="229.65" cy="383.4" r="2.1" transform="translate(-160.93 166.19) rotate(-30)"/><circle class="cls-29" cx="226.24" cy="386.8" r="2.1" transform="translate(-221.85 389.33) rotate(-60)"/><circle class="cls-30" cx="225" cy="391.44" r="2.1"/><circle class="cls-31" cx="226.24" cy="396.09" r="2.1" transform="translate(-167.73 166.19) rotate(-30)"/><circle class="cls-32" cx="229.65" cy="399.49" r="2.1" transform="translate(-231.14 398.62) rotate(-60)"/><circle class="cls-33" cx="234.29" cy="400.73" r="2.1"/><circle class="cls-34" cx="238.94" cy="399.49" r="2.1" transform="translate(-167.73 172.99) rotate(-30)"/><circle class="cls-35" cx="242.34" cy="396.09" r="2.1" transform="translate(-221.85 407.91) rotate(-60)"/><circle class="cls-36" cx="243.58" cy="391.44" r="2.1"/><circle class="cls-37" cx="242.34" cy="386.8" r="2.1" transform="translate(-160.93 172.99) rotate(-30)"/><circle class="cls-38" cx="238.94" cy="383.4" r="2.1" transform="translate(-212.56 398.62) rotate(-60)"/></g></g></g></svg>